# xmcd
#
# Track frame offsets:
#	150
#	14449
#	28851
#	43988
#	63273
#	78043
#	93218
#	107021
#	123691
#	135408
#	148898
#	165036
#	183090
#	197574
#	212479
#	225219
#
# Disc length: 3194 seconds
#
# Revision: 1
# Processed by: cddbd v1.5.2PL0 Copyright (c) Steve Scherf et al.
# Submitted via: audiograbber 1.83.01
#
DISCID=c60c7810
DTITLE=Bruce Kapusta - Bella Colonia CD1 (jesunge)
DYEAR=2011
DGENRE=
TTITLE0=Da Clown für Üch (Radio Edit)
TTITLE1=Bella Colonia
TTITLE2=Licht aus, Spot an
TTITLE3=Sach Lach ma un mach ma
TTITLE4=Die beste Zick im Johr
TTITLE5=Dat Lääve is schön
TTITLE6=Clown-Mädchen
TTITLE7=Kleine Strossemusikant
TTITLE8=Keiner will heim
TTITLE9=Uns kölsche Siel
TTITLE10=Op einem Aug' do kriesche mir
TTITLE11=Laach ens
TTITLE12=Mer blieve in Kölle
TTITLE13=Hände hoch, wir feiern
TTITLE14=Schenk dem Clown ein Lächeln
TTITLE15=Dä Clown für Üch
EXTD=
EXTT0=
EXTT1=
EXTT2=
EXTT3=
EXTT4=
EXTT5=
EXTT6=
EXTT7=
EXTT8=
EXTT9=
EXTT10=
EXTT11=
EXTT12=
EXTT13=
EXTT14=
EXTT15=
PLAYORDER=
